<?xml version="1.0" standalone="no"?>
<!DOCTYPE svg PUBLIC "-//W3C//DTD SVG 20010904//EN"
 "http://www.w3.org/TR/2001/REC-SVG-20010904/DTD/svg10.dtd">
<svg version="1.0" xmlns="http://www.w3.org/2000/svg"
 width="598.000000pt" height="598.000000pt" viewBox="0 0 598.000000 598.000000"
 preserveAspectRatio="xMidYMid meet">

<g transform="translate(0.000000,598.000000) scale(0.100000,-0.100000)"
fill="#000000" stroke="none">
<path d="M1310 3900 l0 -1700 1920 0 1920 0 0 1700 0 1700 -1920 0 -1920 0 0
-1700z m1248 948 c9 -9 12 -122 12 -445 0 -238 4 -433 8 -433 4 0 208 200 452
445 l445 445 141 0 142 0 6 -26 c4 -15 4 -29 1 -33 -3 -3 -163 -164 -356 -356
l-350 -351 217 -314 c606 -878 549 -790 533 -819 -15 -26 -17 -26 -146 -29
l-131 -3 -59 88 c-118 174 -379 561 -481 713 -57 85 -108 159 -113 164 -5 6
-69 -50 -159 -139 l-150 -149 0 -320 c0 -283 -2 -321 -17 -338 -22 -24 -186
-26 -221 -2 l-22 15 0 931 c0 853 1 933 17 950 14 15 32 18 118 18 65 0 105
-4 113 -12z"/>
<path d="M480 1150 l0 -770 2625 0 2625 0 0 770 0 770 -2625 0 -2625 0 0 -770z"/>
</g>
</svg>
